<svg width="92" height="116" viewBox="0 0 92 116" fill="none" xmlns="http://www.w3.org/2000/svg">
<g clip-path="url(#clip0_1_4)">
<path d="M91.6474 89.9419L75.4136 57.6817L91.7165 25.2832C91.9237 24.8687 91.8546 24.4543 91.5092 24.1089C91.1638 23.8325 90.7494 23.7635 90.3349 23.9707L65.6043 38.3393L46.6074 0.552638C46.4692 0.207239 46.1238 0 45.7093 0C45.3639 0 45.0185 0.207239 44.8113 0.552638L25.9525 38.4775L1.49824 23.9707C1.15284 23.7635 0.669277 23.8325 0.323878 24.1089C-0.021521 24.3852 -0.0906003 24.8687 0.116639 25.2832L16.2813 57.6817L0.116639 90.0801C-0.0906003 90.4946 -0.021521 90.9091 0.323878 91.2545C0.669277 91.5308 1.08376 91.5999 1.49824 91.3926L25.9525 76.9549L44.8804 114.88C45.0185 115.225 45.3639 115.432 45.7784 115.432C46.1238 115.432 46.4692 115.225 46.6764 114.88L65.6734 77.0931L90.4039 91.4617C90.5421 91.5308 90.7494 91.5999 90.8875 91.5999C91.4402 91.5999 91.8546 91.1854 91.8546 90.6327C91.7855 90.2873 91.7165 90.0801 91.6474 89.9419ZM46.6764 51.6026L64.8444 41.1025L72.7195 56.7145L46.6764 56.8527V51.6026ZM44.6731 56.8527L18.8373 56.9909L26.7124 41.3097L44.6731 51.879V56.8527ZM44.6731 58.7869V63.5534L26.7124 74.1917L19.0445 58.9942L44.6731 58.7869ZM46.6764 58.7869L72.7195 58.6488L64.8444 74.2608L46.6764 63.6916V58.7869ZM88.4697 27.3556L74.3084 55.4711L66.5023 40.1354L88.4697 27.3556ZM63.9464 39.3755L46.6074 49.323V4.90467L63.9464 39.3755ZM44.604 5.45731L44.6731 49.5302L27.6104 39.5137L44.604 5.45731ZM3.36339 27.4247L25.0545 40.2735L17.3866 55.4711L3.36339 27.4247ZM3.36339 87.9386L17.3866 59.8231L25.0545 75.0898L3.36339 87.9386ZM44.6731 65.8331L44.7422 110.182L27.6104 75.9187L44.6731 65.8331ZM46.6764 110.182L46.6074 65.9712L63.8773 75.9878L46.6764 110.182ZM66.5023 75.2279L74.3084 59.8231L88.4697 87.9386L66.5023 75.2279Z" fill="#35C0ED"/>
</g>
<defs>
<clipPath id="clip0_1_4">
<rect width="91.8546" height="115.432" fill="white"/>
</clipPath>
</defs>
</svg>
